<svg width="59" height="53" viewBox="0 0 59 53" fill="none" xmlns="http://www.w3.org/2000/svg">
<path d="M54.1765 27.6986C55.3257 41.989 33.2574 51.9682 17.4614 44.2814C1.61868 36.568 -0.00166431 15.0097 14.5749 8.42462C29.2085 1.8126 53.0255 13.3962 54.1765 27.6986Z" fill="white"/>
<path d="M10 13H50V37H10V13Z" stroke="#303030" stroke-width="2.68333" stroke-linecap="round" stroke-linejoin="round"/>
<path d="M10 21C12.1217 21 14.1566 20.1571 15.6569 18.6569C17.1571 17.1566 18 15.1217 18 13H10V21Z" stroke="#303030" stroke-width="2.68333" stroke-linecap="round" stroke-linejoin="round"/>
<path d="M10 29C12.1217 29 14.1566 29.8429 15.6569 31.3431C17.1571 32.8434 18 34.8783 18 37H10V29Z" stroke="#303030" stroke-width="2.68333" stroke-linecap="round" stroke-linejoin="round"/>
<path d="M50 29V37H42C42 34.8783 42.8429 32.8434 44.3431 31.3431C45.8434 29.8429 47.8783 29 50 29Z" stroke="#303030" stroke-width="2.68333" stroke-linecap="round" stroke-linejoin="round"/>
<path d="M50 21C47.8783 21 45.8434 20.1571 44.3431 18.6569C42.8429 17.1566 42 15.1217 42 13H50V21Z" stroke="#303030" stroke-width="2.68333" stroke-linecap="round" stroke-linejoin="round"/>
<path d="M30 31C32.76 31 35 28.314 35 25C35 21.686 32.76 19 30 19C27.24 19 25 21.686 25 25C25 28.314 27.24 31 30 31Z" stroke="#303030" stroke-width="2.68333" stroke-linecap="round" stroke-linejoin="round"/>
</svg>
