<svg width="58" height="52" viewBox="0 0 58 52" fill="none" xmlns="http://www.w3.org/2000/svg">
<path d="M51.8348 15.6831C59.1251 28.0277 43.6541 46.6621 26.087 46.6675C8.46629 46.6696 -2.42977 27.9971 7.792 15.6944C18.0532 3.34261 44.5378 3.32855 51.8348 15.6831Z" fill="white"/>
<path d="M18.5 37.375C19.5167 37.375 20.4917 36.9712 21.2106 36.2523C21.9295 35.5334 22.3333 34.5584 22.3333 33.5417C22.3333 32.525 21.9295 31.55 21.2106 30.8311C20.4917 30.1122 19.5167 29.7084 18.5 29.7084C17.4833 29.7084 16.5083 30.1122 15.7894 30.8311C15.0705 31.55 14.6667 32.525 14.6667 33.5417C14.6667 34.5584 15.0705 35.5334 15.7894 36.2523C16.5083 36.9712 17.4833 37.375 18.5 37.375V37.375Z" stroke="#303030" stroke-width="2.68333" stroke-linecap="round" stroke-linejoin="round"/>
<path d="M40.5417 37.375C41.5583 37.375 42.5334 36.9712 43.2523 36.2523C43.9711 35.5334 44.375 34.5584 44.375 33.5417C44.375 32.525 43.9711 31.55 43.2523 30.8311C42.5334 30.1122 41.5583 29.7084 40.5417 29.7084C39.525 29.7084 38.55 30.1122 37.8311 30.8311C37.1122 31.55 36.7083 32.525 36.7083 33.5417C36.7083 34.5584 37.1122 35.5334 37.8311 36.2523C38.55 36.9712 39.525 37.375 40.5417 37.375V37.375Z" stroke="#303030" stroke-width="2.68333" stroke-linecap="round" stroke-linejoin="round"/>
<path d="M14.6667 33.5416H8.91667V10.5416H36.7083V33.5416H22.3333" stroke="#303030" stroke-width="2.68333" stroke-linecap="round" stroke-linejoin="round"/>
<path d="M36.7083 33.5417V17.25H44.9232L51.0833 25.3958V33.5417H45.1532" stroke="#303030" stroke-width="2.68333" stroke-linecap="round" stroke-linejoin="round"/>
</svg>
