<svg width="49" height="48" viewBox="0 0 49 48" fill="none" xmlns="http://www.w3.org/2000/svg">
<path d="M46.3412 32.4024C40.0576 47.2866 16.5264 52.4486 7.56097 40.011C-1.40447 27.5734 -1.64839 4.71927 15.2193 1.37835C32.087 -1.96258 52.6249 17.5181 46.3412 32.4024Z" fill="white"/>
<path d="M11.0833 43.1667H37.9167C38.425 43.1667 38.9125 42.9648 39.272 42.6053C39.6314 42.2459 39.8333 41.7584 39.8333 41.25V14.4167L31.2083 4.83337H11.0833C10.575 4.83337 10.0875 5.03531 9.72805 5.39475C9.3686 5.7542 9.16667 6.24171 9.16667 6.75004V41.25C9.16667 41.7584 9.3686 42.2459 9.72805 42.6053C10.0875 42.9648 10.575 43.1667 11.0833 43.1667Z" stroke="#303030" stroke-width="2.68333" stroke-linecap="round" stroke-linejoin="round"/>
<path d="M17.7917 28.7916L23.5417 33.5833L32.1667 23.0416" stroke="#303030" stroke-width="2.68333" stroke-linecap="round" stroke-linejoin="round"/>
<path d="M30.25 4.83337V14.4167H39.8333" stroke="#303030" stroke-width="2.68333" stroke-linecap="round" stroke-linejoin="round"/>
</svg>
