<svg width="49" height="48" viewBox="0 0 49 48" fill="none" xmlns="http://www.w3.org/2000/svg">
<path d="M29.9085 45.3848C14.1573 49.5165 -3.13171 32.057 1.16681 16.333C5.48236 0.561855 29.2755 -5.57022 40.6881 5.96359C52.1467 17.5422 45.6727 41.2491 29.9085 45.3848Z" fill="white"/>
<path d="M12.0417 16.3333C13.3125 16.3333 14.5313 15.8285 15.4299 14.9299C16.3285 14.0313 16.8333 12.8125 16.8333 11.5417C16.8333 10.2708 16.3285 9.05206 15.4299 8.15345C14.5313 7.25483 13.3125 6.75 12.0417 6.75C10.7708 6.75 9.55206 7.25483 8.65345 8.15345C7.75483 9.05206 7.25 10.2708 7.25 11.5417C7.25 12.8125 7.75483 14.0313 8.65345 14.9299C9.55206 15.8285 10.7708 16.3333 12.0417 16.3333V16.3333Z" stroke="#303030" stroke-width="2.68333" stroke-linecap="round" stroke-linejoin="round"/>
<path d="M36.9583 41.25C38.2292 41.25 39.4479 40.7451 40.3465 39.8465C41.2452 38.9479 41.75 37.7291 41.75 36.4583C41.75 35.1875 41.2452 33.9687 40.3465 33.0701C39.4479 32.1715 38.2292 31.6666 36.9583 31.6666C35.6875 31.6666 34.4687 32.1715 33.5701 33.0701C32.6715 33.9687 32.1667 35.1875 32.1667 36.4583C32.1667 37.7291 32.6715 38.9479 33.5701 39.8465C34.4687 40.7451 35.6875 41.25 36.9583 41.25Z" stroke="#303030" stroke-width="2.68333" stroke-linecap="round" stroke-linejoin="round"/>
<path d="M41.75 6.75L7.25 41.25" stroke="#303030" stroke-width="2.68333" stroke-linecap="round" stroke-linejoin="round"/>
</svg>
