<svg width="24" height="24" viewBox="0 0 24 24" fill="none" xmlns="http://www.w3.org/2000/svg">
<path fill-rule="evenodd" clip-rule="evenodd" d="M16.7683 8.70943C16.6131 10.3363 15.9429 14.2826 15.6026 16.1049C15.4586 16.8754 15.174 17.1334 14.8997 17.1591C14.4266 17.202 14.0434 16.9294 13.6174 16.6251C13.5051 16.5454 13.3903 16.464 13.2703 16.3851C12.7971 16.0749 12.5324 15.8972 12.066 15.5769C11.6512 15.2923 11.3949 15.12 10.9749 14.8431C10.7473 14.6932 10.6036 14.5583 10.5244 14.4326C10.2991 14.0754 10.5929 13.7917 10.9543 13.4443C11.0331 13.368 11.1154 13.2883 11.196 13.2051C11.232 13.1674 11.4077 13.0037 11.6563 12.7731C11.998 12.4557 12.4757 12.0115 12.9132 11.5945C13.304 11.222 13.6628 10.8711 13.8637 10.6518C13.927 10.5826 13.9747 10.5264 14.0027 10.4868C14.0184 10.4647 14.0279 10.4478 14.0306 10.4366C14.0366 10.4091 14.0426 10.308 13.9826 10.2549C13.9226 10.2009 13.8334 10.2197 13.7691 10.2343C13.7531 10.2379 13.6948 10.2707 13.5943 10.3326C13.591 10.3347 13.5876 10.3368 13.5841 10.3389C13.4492 10.4223 13.2423 10.5554 12.9634 10.7382C12.8206 10.8318 12.6585 10.9386 12.4779 11.0583C12.3948 11.1134 12.3078 11.1712 12.2167 11.2317C11.8664 11.4647 11.457 11.7386 10.9885 12.0532C10.8047 12.1766 10.6112 12.3067 10.4092 12.4427C10.4069 12.4443 10.4045 12.4459 10.4022 12.4474C10.3215 12.5018 10.2393 12.5572 10.1556 12.6135L10.1526 12.6156C9.92302 12.7703 9.68254 12.9325 9.43114 13.1023C9.23861 13.2341 9.05455 13.3343 8.87898 13.4028C8.68015 13.4804 8.49221 13.5174 8.31514 13.5137C8.08679 13.5089 7.72691 13.4297 7.36101 13.3295C7.27412 13.3057 7.1869 13.2807 7.10101 13.2552C7.04799 13.2395 6.99547 13.2236 6.94386 13.2077C6.92481 13.2018 6.90588 13.1959 6.8871 13.19C6.82867 13.1718 6.77163 13.1536 6.71657 13.1357C6.6614 13.1173 6.60711 13.1003 6.554 13.0835C6.53285 13.0769 6.51189 13.0703 6.49114 13.0637C5.958 12.8966 5.56543 12.7731 5.60486 12.4594C5.628 12.2743 5.88343 12.0849 6.37029 11.8911C6.56297 11.8072 6.75154 11.7251 6.93598 11.6448C6.93825 11.6438 6.94053 11.6428 6.9428 11.6418C6.9642 11.6325 6.98554 11.6232 7.00682 11.614C7.0867 11.5792 7.16578 11.5448 7.24409 11.5107C7.24678 11.5096 7.24947 11.5084 7.25216 11.5072C9.04594 10.727 10.4286 10.13 11.3998 9.71632C11.7887 9.55071 12.1116 9.41451 12.3686 9.30771C12.7753 9.13857 13.1362 8.98932 13.4571 8.8577C13.75 8.73758 14.0099 8.63203 14.2408 8.53958C15.5332 8.022 15.9239 7.91127 16.2051 7.90629C16.2909 7.90457 16.4811 7.926 16.6037 8.02629C16.6861 8.09737 16.7387 8.1968 16.7511 8.30486C16.772 8.43865 16.7777 8.57436 16.7683 8.70943ZM24 12C24 18.6271 18.6271 24 12 24C5.37294 24 0 18.6271 0 12C0 5.37294 5.37294 0 12 0C18.6271 0 24 5.37294 24 12ZM12 22.2857C17.6803 22.2857 22.2857 17.6803 22.2857 12C22.2857 6.31971 17.6803 1.71429 12 1.71429C6.31971 1.71429 1.71429 6.31971 1.71429 12C1.71429 17.6803 6.31971 22.2857 12 22.2857Z" fill="#1860CF"/>
</svg>
